<mxfile host="app.diagrams.net" modified="2024-03-17T09:15:50.965Z" agent="Mozilla/5.0 (Windows NT 10.0; Win64; x64) AppleWebKit/537.36 (KHTML, like Gecko) Chrome/122.0.0.0 Safari/537.36" version="24.0.7" etag="Xm1vDW6LqXp5bmBMBbGD" type="github">
  <diagram name="第 1 页" id="qEoltLNdKlo5U2y22Iju">
    <mxGraphModel>
      <root>
        <mxCell id="0" />
        <mxCell id="1" parent="0" />
      </root>
    </mxGraphModel>
  </diagram>
</mxfile>
